# xmcd CD database file
#
# Track frame offsets:
#	150
#	15663
#	32900
#	48138
#	61715
#	77265
#	90998
#	110733
#	126370
#	140505
#	153028
#	168755
#	183935
#	199323
#	214453
#	234665
#	249953
#	264628
#	277705
#	289540
#
# Disc length: 4042 seconds
#
# Revision: 3
# Processed by: cddbd v1.5.2PL0 Copyright (c) Steve Scherf et al.
# Submitted via: CDex 1.70beta3
#
DISCID=060fc814
DTITLE=Various Artist - オリジナル原盤による東映戦隊ヒーロー主題歌・挿入歌集Vol.1 Disc2
DYEAR=1987
DGENRE=Soundtrack
TTITLE0=mojo、コロムビアゆりかご会、フィーリングフリー/バトルフィーバーJ
TTITLE1=水木一郎、こおろぎ'73、コロムビアゆりかご会/バトルフィーバー大出撃
TTITLE2=水木一郎、こおろぎ'73、コロムビアゆりかご会/バトルフィーバー賛歌
TTITLE3=mojo/勇者が行く
TTITLE4=成田賢/ああ電子戦隊デンジマン
TTITLE5=成田賢、こおろぎ'73/戦う電子戦隊デンジマン
TTITLE6=内田直哉、ザ・チャープス/ひとりぼっちの青春
TTITLE7=内田直哉、こおろぎ'73、コロムビアゆりかご会/輝け！デンジマン
TTITLE8=成田賢、こおろぎ'73、ザ・チャープス/ゴーゴーデンジタイガー
TTITLE9=成田賢/デンジマンにまかせろ！
TTITLE10=串田アキラ、こおろぎ'73/太陽戦隊サンバルカン
TTITLE11=串田アキラ、こおろぎ'73/たたかいのテーマ
TTITLE12=水木一郎、こおろぎ'73、コロムビアゆりかご会/輝け！サンバルカン
TTITLE13=串田アキラ、こおろぎ'73/ファイト！サンバルカンロボ
TTITLE14=串田アキラ/夢の翼を
TTITLE15=水木一郎、こおろぎ'73、ザ・チャープス/太陽マーチ
TTITLE16=水木一郎/あしたがあるさ
TTITLE17=串田アキラ、こおろぎ'73/戦う仲間サンバルカン
TTITLE18=串田アキラ、コロムビアゆりかご会/1たす2たすサンバルカン
TTITLE19=串田アキラ、こおろぎ'73/若さはプラズマ
EXTD=YEAR: 1987
EXTT0=
EXTT1=
EXTT2=
EXTT3=
EXTT4=
EXTT5=
EXTT6=
EXTT7=
EXTT8=
EXTT9=
EXTT10=
EXTT11=
EXTT12=
EXTT13=
EXTT14=
EXTT15=
EXTT16=
EXTT17=
EXTT18=
EXTT19=
PLAYORDER=
